<svg xmlns="http://www.w3.org/2000/svg" viewBox="0 0 128 128" height="128" width="128">
  <path d="m61.84 57.44c0.2-0.27 0.41-0.54 0.62-0.8 3.12-3.9 6.39-6.36 9.82-7.4 3.43-1.04 6.78-1.3 10.05-0.78 3.27 0.52 6.32 1.54 9.16 3.07 2.45 1.32 4.56 2.58 6.35 3.77 0.26-1.7 0.38-3.55 0.38-5.54 0-4.32-0.6-7.93-1.81-10.84-1.21-2.92-2.73-5.28-4.54-7.1-1.82-1.82-3.81-3.1-5.99-3.86-2.17-0.76-4.26-1.14-6.25-1.14-1.92 0-3.99 0.38-6.2 1.14-2.21 0.76-4.22 2.04-6.04 3.86-1.81 1.82-3.33 4.18-4.54 7.1-1.21 2.91-1.81 6.52-1.81 10.84 0 2.87 0.27 5.43 0.8 7.68zM116.38 68.28 128 76.41 114.36 93.44 104.13 84.2c-2.13 1.57-4.47 2.94-7.03 4.11-5.02 2.31-10.85 3.46-17.47 3.46-6.56 0-12.35-1.12-17.37-3.35-5.03-2.23-9.23-5.28-12.61-9.14-3.39-3.86-5.93-8.35-7.64-13.46-1.71-5.11-2.57-10.46-2.57-16.06 0-5.53 0.84-10.83 2.51-15.9 1.67-5.07 4.2-9.54 7.58-13.4 3.39-3.86 7.59-6.95 12.62-9.26C67.18 8.9 73.01 7.75 79.63 7.75c6.63 0 12.45 1.15 17.47 3.46 5.02 2.31 9.23 5.39 12.61 9.26 3.39 3.86 5.91 8.32 7.59 13.4 1.67 5.07 2.51 10.37 2.51 15.9 0 5.6-0.84 10.94-2.51 16.01-0.28 0.85-0.59 1.69-0.92 2.51zm-27.7 1.96-4.17-3.77c-0.63-0.56-1.61-1.07-2.73-1.76-1.13-0.69-2.35-1.19-3.66-1.51-1.32-0.32-2.67-0.32-4.05-0.02-1.38 0.3-2.66 1.2-3.86 2.69-0.73 0.91-0.99 2.1-1.14 3.31 1.36 1.06 2.81 1.85 4.37 2.38 2.21 0.76 4.28 1.13 6.2 1.13 1.99 0 4.08-0.38 6.25-1.13 0.96-0.34 1.9-0.78 2.8-1.33" fill="#f00"/>
  <path d="M8 7.75H41c5.67 0 10.35 0.9 14.04 2.72 3.69 1.82 6.6 4.05 8.73 6.7 2.12 2.65 3.61 5.52 4.47 8.63 0.86 3.1 1.29 5.94 1.29 8.51 0 2.65-0.43 5.53-1.29 8.63-0.86 3.1-2.35 5.98-4.47 8.63-2.12 2.65-5.04 4.88-8.73 6.7-3.69 1.82-8.37 2.73-14.04 2.73H29.92V87.23H8ZM29.92 43.51h6.26c2.61 0 4.65-0.36 6.1-1.08 1.45-0.72 2.52-1.59 3.19-2.62 0.67-1.02 1.08-2.04 1.23-3.07 0.15-1.02 0.22-1.83 0.22-2.44 0-0.91-0.11-1.89-0.33-2.95-0.22-1.06-0.71-2.04-1.46-2.95-0.74-0.91-1.83-1.66-3.24-2.27-1.42-0.6-3.32-0.91-5.71-0.91h-6.26v18.28" fill="#000"/>
  <path d="M10.17 120.25H27.02V103.15H10.17Z" fill="#999"/>
  <path d="M42.02 120.25H58.87V103.15H42.02Z" fill="#999"/>
  <path d="M73.86 120.25H90.71V103.15H73.86Z" fill="#999"/>
  <path d="m105.7 120.25h16.85v-17.1h-16.85z" fill="#999"/>
</svg>
